<svg xmlns="http://www.w3.org/2000/svg" width="64" height="64" viewBox="0 0 64 64" fill="none"><defs><linearGradient id="g" x1="15" y1="17" x2="47" y2="49"><stop stop-color="#55DB98"/><stop offset="1" stop-color="#1BAE6B"/></linearGradient><linearGradient id="o" x1="39" y1="13" x2="51" y2="25"><stop stop-color="#FFD447"/><stop offset="1" stop-color="#F48A18"/></linearGradient><filter id="s" x="8" y="8" width="48" height="48"><feDropShadow dy="2" stdDeviation="2" flood-opacity=".18"/></filter></defs><g filter="url(#s)"><path d="M14 20a7 7 0 0 1 7-7h22a7 7 0 0 1 7 7v20a7 7 0 0 1-7 7H31l-9 6v-6h-1a7 7 0 0 1-7-7V20Z" fill="url(#g)" stroke="#148D58" stroke-width="2"/><path d="m22 31 6 6 14-15" stroke="#FFF9EF" stroke-width="4.5" stroke-linecap="round" stroke-linejoin="round"/><path d="m47 11 1.5 3.2 3.5.5-2.5 2.4.6 3.5-3.1-1.7-3.1 1.7.6-3.5-2.5-2.4 3.5-.5L47 11Z" fill="url(#o)"/></g></svg>