<svg xmlns="http://www.w3.org/2000/svg" width="48" height="48" viewBox="0 0 48 48" fill="none">
  <defs><linearGradient id="b" x1="14" y1="19" x2="34" y2="37" gradientUnits="userSpaceOnUse"><stop stop-color="#45C0FF"/><stop offset="1" stop-color="#1777E8"/></linearGradient><linearGradient id="o" x1="18" y1="10" x2="32" y2="24" gradientUnits="userSpaceOnUse"><stop stop-color="#FFBD37"/><stop offset="1" stop-color="#F47B17"/></linearGradient><filter id="s" x="5" y="6" width="38" height="37"><feDropShadow dy="1.5" stdDeviation="1.5" flood-opacity=".18"/></filter></defs>
  <g filter="url(#s)">
    <path d="M10.5 22.3 24 10.5l13.5 11.8v14.2a3 3 0 0 1-3 3h-21a3 3 0 0 1-3-3V22.3Z" fill="url(#b)" stroke="#0C5FC6" stroke-width="1.5" stroke-linejoin="round"/>
    <path d="M7.8 22.3 24 8l16.2 14.3" stroke="url(#o)" stroke-width="4" stroke-linecap="round" stroke-linejoin="round"/>
    <path d="M20 39V28.8c0-1.5 1.2-2.8 2.8-2.8h2.4c1.6 0 2.8 1.3 2.8 2.8V39" fill="#FFF9EF"/>
    <path d="M32 16.5c2.4 1.7 3.6 4.1 3.4 7.1-1.7-1.3-3.4-1.8-5.2-1.5 1.6-1.7 2.2-3.6 1.8-5.6Z" fill="#FF9A24"/>
  </g>
</svg>